<?xml version="1.0" encoding="UTF-8" standalone="no"?>
<svg width="15px" height="14px" viewBox="0 0 15 14" version="1.1" xmlns="http://www.w3.org/2000/svg" xmlns:xlink="http://www.w3.org/1999/xlink">
    <!-- Generator: sketchtool 3.8.3 (29802) - http://www.bohemiancoding.com/sketch -->
    <title>2148A98D-7AFE-4F53-9003-2F848FF3DC39</title>
    <desc>Created with sketchtool.</desc>
    <defs></defs>
    <g id="MVMT-Designs" stroke="none" stroke-width="1" fill="none" fill-rule="evenodd">
        <g id="UI-Kit" transform="translate(-419.000000, -919.000000)" fill="#2B2B2B">
            <g id="Iconography" transform="translate(27.000000, 827.000000)">
                <g id="eCommerce---Black" transform="translate(349.000000, 92.000000)">
                    <g id="cart-black" transform="translate(43.000000, 0.000000)">
                        <g id="Group">
                            <path d="M5.8,13.9 C4.85,13.9 4.08333333,13.1333333 4.08333333,12.1833333 C4.08333333,11.2333333 4.85,10.4666667 5.8,10.4666667 C6.75,10.4666667 7.51666667,11.2333333 7.51666667,12.1833333 C7.53333333,13.1333333 6.75,13.9 5.8,13.9 L5.8,13.9 Z M5.8,11.3833333 C5.35,11.3833333 5,11.75 5,12.1833333 C5,12.6333333 5.36666667,12.9833333 5.8,12.9833333 C6.25,12.9833333 6.6,12.6166667 6.6,12.1833333 C6.6,11.7333333 6.25,11.3833333 5.8,11.3833333 L5.8,11.3833333 Z" id="Shape"></path>
                            <path d="M11.7,13.9 C10.75,13.9 9.98333333,13.1333333 9.98333333,12.1833333 C9.98333333,11.2333333 10.75,10.4666667 11.7,10.4666667 C12.65,10.4666667 13.4166667,11.2333333 13.4166667,12.1833333 C13.4166667,13.1333333 12.65,13.9 11.7,13.9 L11.7,13.9 Z M11.7,11.3833333 C11.25,11.3833333 10.9,11.75 10.9,12.1833333 C10.9,12.6333333 11.2666667,12.9833333 11.7,12.9833333 C12.1333333,12.9833333 12.5,12.6166667 12.5,12.1833333 C12.5,11.7333333 12.1333333,11.3833333 11.7,11.3833333 L11.7,11.3833333 Z" id="Shape"></path>
                            <path d="M12.9833333,9.13333333 L4.2,9.13333333 L1.76666667,1.01666667 L0,1.01666667 L0,0.1 L2.45,0.1 L3.15,2.43333333 L15,2.43333333 L12.9833333,9.13333333 L12.9833333,9.13333333 Z M4.9,8.21666667 L12.3,8.21666667 L13.7666667,3.36666667 L3.43333333,3.36666667 L4.9,8.21666667 L4.9,8.21666667 Z" id="Shape"></path>
                        </g>
                    </g>
                </g>
            </g>
        </g>
    </g>
</svg>