<?xml version="1.0" encoding="UTF-8" standalone="no"?>
<svg width="28px" height="28px" viewBox="0 0 28 28" version="1.1" xmlns="http://www.w3.org/2000/svg" xmlns:xlink="http://www.w3.org/1999/xlink">
    <!-- Generator: sketchtool 39.1 (31720) - http://www.bohemiancoding.com/sketch -->
    <title>C48C080E-5F43-46B2-9852-49B698688CCF</title>
    <desc>Created with sketchtool.</desc>
    <defs></defs>
    <g id="Brand-Pages" stroke="none" stroke-width="1" fill="none" fill-rule="evenodd">
        <g id="Home-Page-" transform="translate(-707.000000, -2273.000000)" fill="#FFFFFF">
            <g id="instagram" transform="translate(22.000000, 2038.000000)">
                <g id="center-img" transform="translate(466.000000, 0.000000)">
                    <g id="txt" transform="translate(125.000000, 202.000000)">
                        <g id="instagram-white" transform="translate(94.000000, 33.000000)">
                            <g id="Capa_1">
                                <path d="M3.59390112,0 L24.4060989,0 C26.3825864,0 27.9997125,1.46331947 27.9997125,3.59361364 L27.9997125,24.4063864 C27.9997125,26.5366805 26.3825864,28 24.4060989,28 L3.59390112,28 C1.61683865,28 0,26.5366805 0,24.4063864 L0,3.59361364 C0,1.46331947 1.61683865,0 3.59390112,0 L3.59390112,0 L3.59390112,0 Z M20.396776,3.11091945 C19.7033523,3.11091945 19.1367113,3.67784794 19.1367113,4.37155911 L19.1367113,7.38875712 C19.1367113,8.08218081 19.7033523,8.64939679 20.396776,8.64939679 L23.5614559,8.64939679 C24.2548796,8.64939679 24.8220956,8.08218081 24.8220956,7.38875712 L24.8220956,4.37155911 C24.8220956,3.67784794 24.2548796,3.11091945 23.5614559,3.11091945 L20.396776,3.11091945 L20.396776,3.11091945 L20.396776,3.11091945 Z M24.8353201,11.8411007 L22.3709636,11.8411007 C22.6041173,12.6023718 22.730325,13.4087787 22.730325,14.243072 C22.730325,18.9003953 18.8331229,22.675702 14.0265927,22.675702 C9.22035012,22.675702 5.32372298,18.9003953 5.32372298,14.243072 C5.32372298,13.4082037 5.44964321,12.6020843 5.68308435,11.8411007 L3.11149443,11.8411007 L3.11149443,23.6686894 C3.11149443,24.2807536 3.61230043,24.7818471 4.22465219,24.7818471 L23.7227373,24.7818471 C24.3350891,24.7818471 24.8358951,24.2810411 24.8358951,23.6686894 L24.8358951,11.8411007 L24.8353201,11.8411007 L24.8353201,11.8411007 Z M14.0263053,8.49041532 C10.9208481,8.49041532 8.40301864,10.9297603 8.40301864,13.9391961 C8.40301864,16.9486319 10.9208481,19.3879768 14.0263053,19.3879768 C17.1320499,19.3879768 19.6501668,16.9486319 19.6501668,13.9391961 C19.6501668,10.9297603 17.1323374,8.49041532 14.0263053,8.49041532 L14.0263053,8.49041532 Z" id="Shape"></path>
                            </g>
                        </g>
                    </g>
                </g>
            </g>
        </g>
    </g>
</svg>